<svg xmlns="http://www.w3.org/2000/svg" xmlns:xlink="http://www.w3.org/1999/xlink" width="58px" height="58px" viewBox="0 0 58 58"><title>Icon</title><g id="Page-1" stroke="none" stroke-width="1" fill="none" fill-rule="evenodd"><g id="Barber---desktop" transform="translate(-960.000000, -1771.000000)" stroke="#FFFFFF"><g id="Col-Copy-2" transform="translate(959.000000, 1771.000000)"><g id="Icon" transform="translate(1.000000, 0.000000)"><rect id="Placeholder" x="0.5" y="0.5" width="57" height="57" rx="8"></rect><g id="barber" transform="translate(20.000000, 12.000000)" fill="#FFFFFF" fill-rule="nonzero" stroke-width="0.5"><path d="M14.2109375,9.95608984 L14.2109375,7.08335547 L14.919293,7.08335547 C15.3108242,7.08335547 15.6276484,6.76653125 15.6276484,6.375 L15.6276484,3.54164453 C15.6276484,3.15011328 15.3108242,2.83328906 14.919293,2.83328906 L14.6474258,2.83328906 L15.5501523,1.02438281 C15.659457,0.804378906 15.6483672,0.543601562 15.5183438,0.334753906 C15.3896484,0.126570313 15.1614102,0 14.9165039,0 L14.9151094,0 L5.00537109,0.0249023438 C4.75913672,0.0255664062 4.53222656,0.152867188 4.40353125,0.362445313 C4.27483594,0.571359375 4.2638125,0.832136719 4.37444531,1.05141016 L5.27066406,2.83328906 L5.00251563,2.83328906 C4.61098438,2.83328906 4.29416016,3.15011328 4.29416016,3.54164453 L4.29416016,6.375 C4.29416016,6.76653125 4.61098438,7.08335547 5.00251563,7.08335547 L5.7109375,7.08335547 L5.7109375,9.95608984 C2.52755469,10.3095703 0.0442929688,13.015625 0.0442929688,16.2916445 L0.0442929688,31.1666445 C0.0442929688,32.72925 1.31570703,34 2.87764844,34 L17.044293,34 C18.6062344,34 19.8776484,32.7293164 19.8776484,31.1666445 L19.8776484,16.2916445 C19.8776484,13.015625 17.3943203,10.3095703 14.2109375,9.95608984 Z M13.7696016,1.41943359 L13.0645664,2.83335547 L6.85558203,2.83335547 L6.1550625,1.43882422 L13.7696016,1.41943359 Z M5.7109375,4.25 L14.2109375,4.25 L14.2109375,5.66664453 L5.7109375,5.66664453 L5.7109375,4.25 Z M6.41929297,11.3333555 C6.81082422,11.3333555 7.12764844,11.0165312 7.12764844,10.625 L7.12764844,7.08335547 L12.794293,7.08335547 L12.794293,10.625 C12.794293,11.0165312 13.1111172,11.3333555 13.5026484,11.3333555 C15.9938125,11.3333555 18.0419805,13.1868203 18.389418,15.5833555 L1.53252344,15.5833555 C1.87996094,13.1868203 3.9280625,11.3333555 6.41929297,11.3333555 Z M18.4609375,31.1666445 C18.4609375,31.947582 17.8258945,32.5832891 17.044293,32.5832891 L2.87758203,32.5832891 C2.09591406,32.5832891 1.4609375,31.947582 1.4609375,31.1666445 L1.4609375,28.3332891 L18.4609375,28.3332891 L18.4609375,31.1666445 Z M18.4609375,19.8333555 L18.4609375,26.9167109 L1.4609375,26.9167109 L1.4609375,19.8285078 L1.4609375,17 L18.4609375,17 L18.4609375,19.8333555 Z" id="Shape"></path></g></g></g></g></g></svg>