<svg xmlns="http://www.w3.org/2000/svg" xmlns:xlink="http://www.w3.org/1999/xlink" width="58px" height="58px" viewBox="0 0 58 58"><title>Icon</title><g id="Page-1" stroke="none" stroke-width="1" fill="none" fill-rule="evenodd"><g id="Barber---desktop" transform="translate(-61.000000, -1771.000000)"><g id="Col" transform="translate(60.000000, 1771.000000)"><g id="Icon" transform="translate(1.000000, 0.000000)"><rect id="Placeholder" stroke="#FFFFFF" x="0.500057856" y="0.5" width="57" height="57" rx="8"></rect><g id="beard-(1)" transform="translate(14.000058, 12.000000)"></g><path d="M43.2455718,18.3929836 L43.2162598,18.4022141 C43.7416989,17.4903252 44.0046225,16.4180656 44.0000579,15.1978531 C43.9963934,14.4901631 43.5663032,13.848348 42.9043016,13.5628016 C42.2432521,13.2773881 41.4685592,13.3977824 40.9284981,13.8706604 C39.7847193,14.8765803 38.866731,15.0466464 36.4516561,13.3961223 C35.0775301,12.4566749 33.7131294,12 32.2802435,12 C30.8266147,12 29.7313264,12.5815184 29.0000234,13.0984236 C28.2687204,12.5815184 27.1734322,12 25.7198034,12 C24.3052799,12 22.9563173,12.446714 21.5959972,13.3653762 C19.1289632,15.0306425 18.2062143,14.8669514 17.0714807,13.870594 C16.5312156,13.395591 15.7538704,13.2754624 15.0956773,13.5629344 C14.4337437,13.8485472 14.0036534,14.4902959 14.0000579,15.1991148 C13.9946082,16.6619089 14.3741676,17.9126681 15.1302259,18.9291466 C14.8890653,19.8138754 14.7670568,20.7133463 14.7670568,21.6100945 C14.7670568,23.8267308 15.4767328,25.9747696 16.7282383,27.5874422 C16.6145269,28.162652 16.5569911,28.7564556 16.5569911,29.3588255 C16.5569911,32.3374056 18.0404759,35.0410644 20.3028021,36.2884369 C20.493636,37.5848836 20.9362399,38.8244203 21.5968813,39.9026564 C22.3891886,41.1959156 23.4576132,42.191941 24.6859274,42.7826899 C25.473134,43.1620016 26.6564262,43.8353597 27.8380181,45.2967592 C28.199351,45.7436724 28.7217978,46 29.2714482,46 C29.8212346,46 30.3438173,45.7436724 30.7048782,45.2967592 C31.6054561,44.1827965 32.5616655,43.4183293 33.805962,42.8176859 C35.0352964,42.2228863 36.1072575,41.2232085 36.9059576,39.9268283 C37.5728559,38.8444085 38.0247091,37.5978992 38.2266284,36.2924213 C40.4612749,35.0554745 41.9261932,32.3507532 41.9261932,29.3588919 C41.9261932,28.7569868 41.8687934,28.1637145 41.755218,27.5889031 C43.0444686,25.9415001 43.7757715,23.7918676 43.7757715,21.6102273 C43.7758396,20.5400927 43.5974514,19.4576729 43.2455718,18.3929836 L43.2455718,18.3929836 Z M19.2215408,16.7232743 C20.2455028,16.5989992 21.3048557,16.1137051 22.7637671,15.1004635 C23.7847401,14.391051 24.7252173,14.0606061 25.7237737,14.0606061 C26.8676303,14.0606061 27.6752384,14.6649886 28.3424371,15.2314949 C28.7221603,15.5539551 29.2781592,15.5539551 29.6578824,15.2314949 C30.3250811,14.6649886 31.1326892,14.0606061 32.2764778,14.0606061 C33.2891635,14.0606061 34.2416641,14.398831 35.2741851,15.1252366 C36.7150274,16.13841 37.7645306,16.6219297 38.7836016,16.7419736 C39.8915238,16.8725274 40.9251995,16.547815 41.9310923,15.751526 C41.8592914,16.8386776 41.49886,17.6969336 40.8354653,18.3658764 C39.6005838,19.6110847 37.2721132,20.2424242 33.9146539,20.2424242 C32.0861408,20.2424242 30.5695577,19.824625 29.6444325,19.0659392 C29.4568805,18.912182 29.2285031,18.8352693 29.0001258,18.8352693 C28.7717484,18.8352693 28.5433032,18.912182 28.3558191,19.0659392 C27.4306939,19.824625 25.9141108,20.2424242 24.0855977,20.2424242 C20.7284101,20.2424242 18.3999395,19.6109482 17.1648542,18.3655352 C16.5011198,17.6961829 16.1405526,16.8373809 16.0690234,15.7505706 C17.0709084,16.5401033 18.1062144,16.8587418 19.2215408,16.7232743 L19.2215408,16.7232743 Z M31.5862648,22.1940079 C31.2171565,23.4423557 29.9656111,24.3636364 28.4828165,24.3636364 C27.0000218,24.3636364 25.7485401,23.4423557 25.3793682,22.1940079 C26.5792562,22.0529156 27.6388043,21.7390868 28.4828165,21.2727273 C29.3268287,21.7390868 30.3863767,22.0529156 31.5862648,22.1940079 Z M40.9992019,25.4325139 C40.4407991,24.7267946 39.6699134,24.1876232 38.775751,23.9107298 C38.2405134,23.7449127 37.6699185,24.036222 37.5009888,24.560911 C37.3320591,25.0856665 37.6288714,25.6454986 38.1639058,25.8111829 C39.0163438,26.0751882 39.6663235,26.7698132 39.8603827,27.6242099 C39.8619406,27.6310526 39.8635662,27.6378952 39.8652595,27.6446713 C39.8656659,27.6461993 39.8660046,27.6477937 39.866411,27.6493217 C39.8668174,27.6509161 39.8671561,27.652444 39.8675625,27.6540384 C40.0144108,28.2219754 40.0888509,28.8207374 40.0888509,29.4335832 C40.0888509,31.2985609 39.3487167,33.0442912 38.1943185,34.0874909 C37.8229983,33.1644688 37.142064,32.3707919 36.2417377,31.8598546 C35.7562172,31.5842235 35.1344828,31.7469182 34.8535203,32.2233768 C34.5725578,32.6997025 34.7384395,33.3093595 35.2241632,33.5849242 C35.9852951,34.0168725 36.4628907,34.813871 36.4786051,35.6729844 C36.2228398,38.1150005 34.9125847,40.2463752 33.1320494,41.1117334 C31.6873415,41.8122045 30.5631529,42.6898529 29.5171299,43.9393939 C28.1412401,42.3008868 26.7727334,41.5224231 25.8489711,41.0753281 C24.0702646,40.2160153 22.7776205,38.0997209 22.5471202,35.6755753 C22.561954,34.8154654 23.0397528,34.0172711 23.8016298,33.5849242 C24.2873535,33.3093595 24.4532352,32.6997025 24.1722727,32.2233768 C23.8912425,31.7469182 23.2696435,31.5844228 22.7840553,31.8598546 C21.8819679,32.3717884 21.200153,33.1675911 20.8293069,34.0930049 C19.6459185,33.045952 18.886209,31.2957707 18.886209,29.4335832 C18.886209,28.8206709 18.9606491,28.2219754 19.1074974,27.6540384 C19.1079038,27.652444 19.1082425,27.6509161 19.1086489,27.6493217 C19.1090553,27.6477937 19.1093939,27.6462657 19.1098004,27.6446713 C19.1114937,27.6378287 19.1131193,27.6310526 19.1146772,27.6242099 C19.3087364,26.7698132 19.9587161,26.0751882 20.8111541,25.8111829 C21.3461885,25.6454986 21.6430008,25.0856665 21.4740711,24.560911 C21.3051414,24.0361556 20.7343433,23.7450455 20.1993089,23.9107298 C19.3101588,24.1860952 18.5427953,24.7208156 17.9852054,25.4208217 C17.4158974,24.3198251 17.1035061,23.0209907 17.1035061,21.6817648 C17.1035061,21.3102707 17.1295162,20.9377136 17.1811298,20.5660201 C18.7648288,21.526577 20.9765616,22.0207732 23.882437,22.067675 C24.3479758,24.5569915 26.5763713,26.4493397 29.2470049,26.4493397 C31.9176386,26.4493397 34.1459663,24.5569915 34.6115729,22.067675 C37.8281461,22.0157243 40.1940425,21.4159658 41.7991456,20.2424242 C41.8868617,20.7238653 41.9310923,21.2050406 41.9310923,21.6816984 C41.9310923,23.0067075 41.600616,24.3112553 40.9992019,25.4325139 Z" id="Shape" fill="#FFFFFF" fill-rule="nonzero"></path></g></g></g></g></svg>