<svg xmlns="http://www.w3.org/2000/svg" xmlns:xlink="http://www.w3.org/1999/xlink" width="59px" height="58px" viewBox="0 0 59 58"><title>Icon</title><g id="Page-1" stroke="none" stroke-width="1" fill="none" fill-rule="evenodd"><g id="Barber---desktop" transform="translate(-509.000000, -1771.000000)"><g id="Icon" transform="translate(509.000000, 1771.000000)"><rect id="Placeholder" stroke="#FFFFFF" x="1.47236283" y="0.500098582" width="57" height="57" rx="8"></rect><g id="razor-blade" transform="translate(16.972363, 12.000099)"></g><path d="M43.4565145,30.4362001 L28.7832538,15.7982041 C28.9192064,14.8549697 28.6421922,13.8641884 27.9535382,13.1091494 L27.9219552,13.0745517 C27.2925524,12.3845244 26.3955571,11.9928603 25.4611401,12.0000986 C24.5220785,12.0074697 23.6262112,12.4156689 23.0032443,13.1201064 C22.6797183,13.4860048 22.3706567,13.8601376 22.0732728,14.2404462 C22.0375761,14.2365947 22.001415,14.2342705 21.9646567,14.2342705 C21.0934718,14.2342705 20.3574434,13.6672939 20.3574434,12.9961923 C20.3574434,12.446083 19.911832,12.0000986 19.3621827,12.0000986 C18.8125334,12.0000986 18.3669221,12.446083 18.3669221,12.9961923 C18.3669221,14.4079892 19.3812254,15.6102744 20.7895856,16.0485556 C15.0838225,24.9324501 15.8207799,36.7576767 23.0032443,44.8801572 C23.6262112,45.5845947 24.5220785,45.9927939 25.4611401,46.0000986 C25.4696993,46.0000986 25.4780595,46.0000986 25.486486,46.0000986 C26.4118131,46.0000986 27.2983249,45.6093642 27.9222206,44.9253798 L27.9535382,44.8910478 C29.0895951,43.6453994 29.1074434,41.758665 27.9950737,40.5021923 C23.1534624,35.0332392 22.3508842,27.246708 25.5853486,21.0083056 L27.6771875,23.0950556 L26.5224197,24.2470712 C26.3350453,24.4339384 26.2297467,24.6878095 26.2297467,24.9525712 C26.2297467,25.217333 26.3350453,25.4712041 26.5224197,25.6580712 L40.275396,39.3776025 C40.4696045,39.5713095 40.7237941,39.6681962 40.9779837,39.6681962 C41.2321733,39.6681962 41.4863628,39.5713759 41.6805714,39.3776025 L43.4564481,37.6060166 C44.4161448,36.6485712 44.9446946,35.3754306 44.9446946,34.0210087 C44.9446946,32.6667197 44.4162112,31.3935791 43.4565145,30.4362001 Z M26.5052349,41.8234111 C26.9408273,42.315415 26.9313391,43.0569072 26.4832064,43.5481806 C26.4831401,43.548247 26.4830737,43.5483798 26.482941,43.5484462 L26.4518889,43.5825126 C26.1990263,43.8597587 25.8514813,44.0104345 25.4765334,44.0079423 C25.0957467,44.0049892 24.746742,43.8458798 24.4938794,43.5598681 C17.1539647,35.2594189 17.1539647,22.7407783 24.4938131,14.4403955 C24.746742,14.1543837 25.0957467,13.9952744 25.4765334,13.9922861 C25.48005,13.9922861 25.483633,13.9922861 25.4871496,13.9922861 C25.859178,13.9922861 26.201415,14.1430947 26.4516235,14.4174189 L26.4832064,14.4520166 C26.9313391,14.94329 26.9407609,15.6847822 26.5052349,16.1768525 C25.7617088,17.0166923 25.1047041,17.9060712 24.5320311,18.8327041 C24.5306377,18.8348291 24.5295097,18.8369541 24.5281164,18.8390791 C20.1201733,25.9776181 20.778505,35.3546455 26.5052349,41.8234111 L26.5052349,41.8234111 Z M42.0512728,36.195083 L40.9779837,37.2657509 L28.6348273,24.9525712 L29.7895951,23.8005556 C29.9769695,23.6136884 30.082268,23.3598173 30.082268,23.0950556 C30.082268,22.8302939 29.9769695,22.5764228 29.7895951,22.3895556 L26.6373391,19.2450205 C27.0054529,18.7040087 27.4074055,18.1792001 27.8433296,17.6734501 L42.0512064,31.8472001 C42.6335003,32.4280556 42.9541733,33.2000947 42.9541733,34.0211416 C42.9541733,34.842122 42.6335666,35.6142275 42.0512728,36.195083 L42.0512728,36.195083 Z" id="Shape" fill="#FFFFFF" fill-rule="nonzero"></path></g></g></g></svg>