<?xml version="1.0" encoding="UTF-8"?>
<svg width="203px" height="101px" viewBox="0 0 203 101" version="1.1" xmlns="http://www.w3.org/2000/svg" xmlns:xlink="http://www.w3.org/1999/xlink">
    <title>Group 2</title>
    <g id="Page-1" stroke="none" stroke-width="1" fill="none" fill-rule="evenodd">
        <g id="Barber---desktop" transform="translate(-50.000000, -50.000000)" fill="#FFFFFF">
            <g id="Group-2" transform="translate(50.000000, 50.000000)">
                <path d="M53.9425714,8.79704082 L52.7990612,13.8503469 C52.2420204,14.5944694 51.5210204,14.832 50.5372653,14.832 C48.3322245,14.832 47.4577755,12.8119388 47.4577755,10.4450408 C47.4577755,6.21993878 50.4342653,1.2465102 53.356102,1.2465102 C55.0566531,1.2465102 55.1911837,2.70953061 55.1911837,3.1362449 C55.1911837,3.80259184 54.6887959,5.12897959 54.022449,5.31606122 C54.5290408,5.90042857 55.4287143,6.00763265 55.8575306,6.00763265 C57.2112449,6.00763265 57.7178367,4.97132653 57.7178367,3.56295918 C57.7178367,0.983755102 55.2458367,0 52.7717347,0 C46.8418776,0 43.360898,5.15630612 43.360898,10.2327347 C43.360898,13.902898 44.7440408,17.0391429 49.078449,17.0391429 C49.3138776,17.0391429 50.779,16.9046122 52.3197959,16.0827143 L51.2540612,20.8417347 C50.6423673,23.5785918 49.7952449,24.1104082 48.5970816,24.1104082 C47.480898,24.1104082 46.9238571,23.2317551 46.9238571,22.3026531 C46.9238571,21.318898 47.5607755,20.2846939 48.7841633,20.2846939 C49.3138776,20.2846939 49.7111633,20.4150204 50.3796122,20.9720612 C50.4847143,20.5747755 50.5372653,20.2027143 50.5372653,19.9105306 C50.5372653,18.2099796 48.9943673,18.130102 47.9328367,18.130102 C45.8307959,18.130102 44.6935918,19.9630816 44.6935918,21.7729388 C44.6935918,23.6059184 45.8623265,25.438898 48.3826735,25.438898 C52.7444082,25.438898 54.3125306,22.8891224 55.1911837,18.8195714 L57.368898,8.82646939 L53.9425714,8.79704082" id="Fill-30"></path>
                <path d="M64.7323469,7.81328571 C65.2368367,7.81328571 65.3986939,8.24 65.3986939,8.90634694 C65.3986939,11.1113878 63.5909388,13.1566735 61.543551,13.2912041 C62.0774694,10.659449 63.3786327,7.81328571 64.7323469,7.81328571 Z M100.437612,7.81328571 C100.944204,7.81328571 101.099755,8.24 101.099755,8.90634694 C101.099755,11.1113878 99.292,13.1566735 97.2446122,13.2912041 C97.7785306,10.659449 99.0817959,7.81328571 100.437612,7.81328571 Z M129.569796,7.81328571 C130.076388,7.81328571 130.234041,8.24 130.234041,8.90634694 C130.234041,11.1113878 128.43049,13.1566735 126.383102,13.2912041 C126.912816,10.659449 128.21398,7.81328571 129.569796,7.81328571 Z M142.331286,16.4001224 C142.331286,14.9118776 143.609327,11.6957551 143.609327,9.54326531 C143.609327,7.416 142.358612,6.53944898 140.658061,6.53944898 C139.831959,6.53944898 138.661122,6.7517551 137.547041,8.02769388 L137.841327,6.64455102 L134.015612,6.64455102 L132.043898,15.9229592 C130.938224,17.0559592 129.767388,17.8652449 128.029,17.8652449 C126.755163,17.8652449 126.111939,17.4385306 126.111939,15.6307755 C126.111939,15.3112653 126.143469,14.9392041 126.166592,14.5671429 C129.359592,14.3821633 132.285633,12.0152653 132.285633,8.95679592 C132.285633,7.62830612 131.724388,6.40491837 129.359592,6.40491837 C123.906898,6.40491837 122.17902,12.8119388 122.17902,15.8704082 C122.17902,16.1857143 122.210551,16.4715918 122.246286,16.7469592 C121.893143,17.2283265 121.460122,17.5163061 120.825306,17.5163061 C120.030735,17.5163061 119.763776,17.0664694 119.763776,16.4001224 C119.763776,14.9118776 121.037612,11.6957551 121.037612,9.54326531 C121.037612,7.416 119.789,6.53944898 118.084245,6.53944898 C117.10049,6.53944898 115.669,6.83163265 114.390959,8.79704082 C114.098776,7.15114286 113.062469,6.51212245 111.652,6.51212245 C110.725,6.51212245 109.526837,6.7517551 108.408551,8.02769388 L108.700735,6.64455102 L104.872918,6.64455102 L102.909612,15.9229592 C101.803939,17.0580612 100.633102,17.8652449 98.8926122,17.8652449 C97.6166735,17.8652449 96.9797551,17.4385306 96.9797551,15.6307755 C96.9797551,15.3112653 97.0112857,14.9392041 97.0323061,14.5671429 C100.227408,14.3821633 103.151347,12.0152653 103.151347,8.95679592 C103.151347,7.62830612 102.590102,6.40491837 100.227408,6.40491837 C94.7705102,6.40491837 93.0447347,12.8119388 93.0447347,15.8704082 C93.0447347,16.1625918 93.0720612,16.427449 93.1056939,16.686 C92.6558571,17.1946939 92.1114286,17.5163061 91.5291633,17.5163061 C90.7871429,17.5163061 90.4424082,17.2787755 90.4424082,16.532551 C90.4424082,16.2950204 90.4655306,16.0280612 90.5475102,15.6833265 L93.6059796,1.3284898 L89.6730612,1.85820408 L86.826898,15.1788367 C86.7217959,15.6854286 86.6650408,16.1457755 86.6335102,16.5724898 C86.1710612,17.150551 85.5845918,17.5163061 84.9644898,17.5163061 C84.2224694,17.5163061 83.8777347,17.2787755 83.8777347,16.532551 C83.8777347,16.2950204 83.9008571,16.0280612 83.9828367,15.6833265 L85.6812857,7.71028571 L87.2767347,7.71028571 L87.4890408,6.64455102 L85.8956939,6.64455102 L86.7953673,2.44467347 L82.862449,2.9764898 L82.0657755,6.64455102 L81.1871224,6.64455102 L80.9748163,7.71028571 L81.8534694,7.71028571 L80.2580204,15.1788367 C80.1466122,15.7043469 80.0877551,16.1836122 80.0646327,16.6229388 C79.6925714,17.1820816 79.2448367,17.5163061 78.5553673,17.5163061 C77.7586939,17.5163061 77.4959388,17.0664694 77.4959388,16.4001224 C77.4959388,14.9118776 78.7676735,11.6957551 78.7676735,9.54326531 C78.7676735,7.416 77.5169592,6.53944898 75.8185102,6.53944898 C74.9945102,6.53944898 73.8278776,6.7517551 72.7095918,8.02769388 L72.9975714,6.64455102 L69.1739592,6.64455102 L67.206449,15.9229592 C66.1007755,17.0559592 64.9299388,17.8652449 63.189449,17.8652449 C61.9135102,17.8652449 61.2807959,17.4385306 61.2807959,15.6307755 C61.2807959,15.3112653 61.3060204,14.9392041 61.3333469,14.5671429 C64.5242449,14.3821633 67.4418776,12.0152653 67.4418776,8.95679592 C67.4418776,7.62830612 66.8890408,6.40491837 64.5242449,6.40491837 C59.0736531,6.40491837 57.3436735,12.8119388 57.3436735,15.8704082 C57.3436735,18.8742245 58.9895714,20.0955102 61.488898,20.0955102 C63.7380816,20.0955102 65.4680612,19.0949388 66.8217755,17.7370204 L66.3551224,19.9357551 L70.1829388,19.9357551 L71.9864898,11.4035714 C72.3900816,10.0771837 73.1068776,8.95679592 74.0654082,8.95679592 C74.7023265,8.95679592 75.0260408,9.43606122 75.0260408,10.3147143 C75.0260408,12.0152653 73.8278776,15.2839388 73.8278776,17.0916939 C73.8278776,18.6072653 74.6497755,20.0955102 76.9620204,20.0955102 C77.9016327,20.0955102 79.1250204,19.8411633 80.2790408,18.3781429 C80.7120612,19.5636939 81.7084286,20.0955102 82.8876735,20.0955102 C83.8819388,20.0955102 85.437449,19.8180408 86.8037755,18.231 C87.2073673,19.517449 88.2247551,20.0955102 89.456551,20.0955102 C90.4760408,20.0955102 92.084102,19.7970204 93.4861633,18.0859592 C94.1251837,19.4796122 95.4410612,20.0955102 97.1941633,20.0955102 C99.4391429,20.0955102 101.169122,19.0970408 102.524939,17.7412245 L102.058286,19.9357551 L105.881898,19.9357551 L107.691755,11.4035714 C108.089041,10.0771837 108.810041,8.93157143 109.846347,8.93157143 C110.432816,8.93157143 110.640918,9.51804082 110.640918,10.1003061 C110.640918,10.3399388 110.613592,10.5522449 110.563143,10.764551 L108.622959,19.9357551 L112.450776,19.9357551 L114.260633,11.4035714 C114.657918,10.0771837 115.374714,8.95679592 116.331143,8.95679592 C116.970163,8.95679592 117.289673,9.43606122 117.289673,10.3147143 C117.289673,12.0152653 116.09151,15.2839388 116.09151,17.0916939 C116.09151,18.6072653 116.917612,20.0955102 119.229857,20.0955102 C120.205204,20.0955102 121.489551,19.8243469 122.68351,18.2099796 C123.341449,19.5132449 124.63,20.0955102 126.332653,20.0955102 C128.573429,20.0955102 130.30551,19.0949388 131.659224,17.7370204 L131.192571,19.9357551 L135.024592,19.9357551 L136.830245,11.4035714 C137.229633,10.0771837 137.944327,8.95679592 138.900755,8.95679592 C139.54398,8.95679592 139.859286,9.43606122 139.859286,10.3147143 C139.859286,12.0152653 138.661122,15.2839388 138.661122,17.0916939 C138.661122,18.6072653 139.304347,20.0955102 141.349633,20.0955102 C142.755898,20.0955102 144.033939,19.2715102 144.273571,17.3607551 C144.115918,17.4637551 143.848959,17.5163061 143.394918,17.5163061 C142.598245,17.5163061 142.331286,17.0664694 142.331286,16.4001224 L142.331286,16.4001224 Z" id="Fill-31"></path>
                <polyline id="Fill-32" points="148.076163 0 146.449184 5.02387755 148.446122 5.02387755 150.863469 0 148.076163 0"></polyline>
                <path d="M152.511469,17.9976735 C151.338531,17.9976735 150.895,17.3859796 150.895,16.1352653 C151.025327,16.4001224 151.338531,16.48 151.609694,16.48 C152.301265,16.48 152.778429,15.8178571 152.778429,15.1788367 C152.778429,14.726898 152.511469,14.4073878 152.166735,14.2476327 C153.045388,12.5449796 153.78951,10.9495306 154.319224,9.2237551 C154.58198,13.3164286 154.823714,14.1425306 154.823714,15.5235714 C154.823714,17.3859796 153.684408,17.9976735 152.511469,17.9976735 Z M158.092388,5.82055102 L154.163673,6.35236735 C153.337571,8.95679592 152.381143,11.5906531 150.895,14.2224082 C150.174,14.5671429 149.484531,15.4689184 149.484531,16.6944082 C149.484531,18.3150816 150.653265,20.0955102 153.362796,20.0955102 C155.544714,20.0955102 158.683061,18.952 158.683061,15.4983469 C158.683061,13.7431429 158.416102,12.7047347 158.092388,5.82055102 L158.092388,5.82055102 Z" id="Fill-33"></path>
                <path d="M10.6384286,76.5605306 C13.8734694,76.0770612 15.4857347,75.8500408 18.7207755,75.4128163 C20.4276327,73.5651224 21.2894694,72.6570408 22.9984286,70.864 C23.0131429,67.568 23.0131429,65.922102 23.021551,62.626102 C21.1402245,61.0684898 20.2069184,60.2823265 18.3213878,58.6910816 C15.2587143,58.9517347 13.7284286,59.0925714 10.6657551,59.380551 C10.6573469,66.2542245 10.6531429,69.6868571 10.6384286,76.5605306 Z M17.6760612,52.3303061 C19.2441837,50.467898 20.0219388,49.5493061 21.5921633,47.7289388 C21.5963673,44.7230204 21.5963673,43.2179592 21.6005714,40.2120408 C19.8958163,38.6628367 19.0486939,37.8787755 17.3376327,36.2938367 C14.6827551,36.3442857 13.3521633,36.3695102 10.6993878,36.4262653 C10.6867755,42.9846327 10.6804694,46.2659184 10.6741633,52.8221837 C13.4719796,52.6161837 14.8740408,52.5194898 17.6760612,52.3303061 Z M5.97435933e-14,29.8027347 C8.06342857,29.8006327 12.101449,29.8006327 20.1669796,29.7985306 C23.4650816,32.9284694 25.1046735,34.4503469 28.4048776,37.439449 C28.3922653,42.3960612 28.377551,44.8743673 28.3670408,49.8288776 C26.7400612,51.7017959 25.9265714,52.6498163 24.2974898,54.5689796 C26.5046327,56.4397959 27.6082041,57.3667959 29.8132449,59.1871633 C29.7943265,64.581 29.7859184,67.2716122 29.769102,72.665449 C26.4541837,76.0581429 24.8040816,77.8007347 21.5038776,81.3826122 C14.4410204,82.4357347 10.9137959,83.020102 3.88246939,84.3107551 C3.89087755,66.0923673 3.89928571,56.9842245 3.91189796,38.7679388 C5.03018367,38.0616531 5.59142857,37.7085102 6.71391837,37.0190408 C6.71391837,36.8151429 6.71391837,36.7163469 6.71391837,36.512449 C4.02540816,36.5713061 2.68430612,36.6049388 5.97435933e-14,36.670102 C5.97435933e-14,33.9227347 5.97435933e-14,32.548 5.97435933e-14,29.8027347 L5.97435933e-14,29.8027347 Z" id="Fill-34"></path>
                <path d="M51.0144286,35.5728367 C50.4489796,35.5770408 50.1715102,35.585449 49.6060612,35.5896531 C47.9496531,45.1917755 47.1151429,50.0285714 45.4587347,59.7946531 C49.2970612,59.5466122 51.2246327,59.433102 55.0650612,59.2292041 C53.4443878,49.8372857 52.630898,45.1097959 51.0144286,35.5728367 Z M39.5099592,29.7291633 C46.450898,29.7291633 49.9213673,29.7291633 56.8665102,29.7291633 C60.0784286,48.7589388 61.6906939,58.1298367 64.9173265,76.6971633 C62.1930816,76.8800408 60.8351633,76.9788367 58.1109184,77.197449 C57.270102,72.3207143 56.8475918,69.8781429 56.0046735,64.9698776 C51.394898,65.2578571 49.0826531,65.4218163 44.4770816,65.7791633 C43.6026327,70.9207551 43.1612041,73.5020612 42.2867551,78.6962041 C39.5730204,78.9925918 38.213,79.1502449 35.4971633,79.4802653 C38.2676531,62.4621429 39.655,54.1086327 42.433898,37.6391429 C43.5584898,37.0169388 44.1218367,36.7058367 45.2443265,36.0941429 C45.2443265,35.9133673 45.2443265,35.8250816 45.2443265,35.6443061 C42.9404898,35.6716327 41.7906735,35.6863469 39.4889388,35.7178776 C39.501551,33.3236531 39.501551,32.1233878 39.5099592,29.7291633 L39.5099592,29.7291633 Z" id="Fill-35"></path>
                <path d="M78.3745918,54.7896939 C81.0673061,54.7287347 82.4147143,54.7035102 85.1095306,54.6614694 C86.9488163,52.9840408 87.8653061,52.1516327 89.7024898,50.4931224 C89.7066939,45.9337959 89.7024898,43.6530816 89.7066939,39.0958571 C87.9073469,37.6076122 87.0097755,36.8676939 85.2104286,35.3773469 C82.4924898,35.3857551 81.1303673,35.3899592 78.4124286,35.4046735 C78.3956122,43.159102 78.3914082,47.0352653 78.3745918,54.7896939 Z M78.330449,75.963551 C75.6335306,76.0770612 74.2819184,76.1422245 71.5807959,76.2914694 C71.6270408,60.7006327 71.6459592,52.9041633 71.688,37.3112245 C72.8146939,36.7289592 73.3696327,36.4367755 74.4921224,35.8608163 C74.4921224,35.688449 74.5026327,35.6001633 74.5026327,35.4277959 C71.7573673,35.4467143 70.3805306,35.4530204 67.6310612,35.4761429 C67.6394694,33.1765102 67.6352653,32.0287959 67.6436735,29.7291633 C75.7638571,29.7291633 79.8292041,29.7291633 87.9493878,29.7291633 C91.3441837,32.5711224 93.0447347,33.9857959 96.4458367,36.8172449 C96.4416327,43.1485918 96.4311224,46.3142653 96.4269184,52.6456122 C94.0284898,54.7833878 92.8303265,55.8554286 90.4276939,58.0142245 C94.3606122,64.9972041 96.3344286,68.4802857 100.277857,75.4884898 C97.3097755,75.4905918 95.8299388,75.5053061 92.8660612,75.549449 C89.401898,69.4346122 87.6656122,66.3866531 84.2140612,60.2655102 C81.8702857,60.3138571 80.699449,60.3432857 78.3556735,60.408449 C78.3472653,66.6283878 78.3430612,69.7415102 78.330449,75.963551 L78.330449,75.963551 Z" id="Fill-36"></path>
                <path d="M112.812327,69.9790408 C116.074694,70.042102 117.701673,70.0820408 120.959837,70.1892449 C122.679306,68.8166122 123.530633,68.133449 125.243796,66.7608163 C125.235388,63.7927347 125.23749,62.3086939 125.231184,59.3406122 C123.333041,57.7283469 122.38502,56.9316735 120.48898,55.3404286 C117.411592,55.2773673 115.872898,55.2521429 112.793408,55.2164082 C112.799714,61.1231429 112.803918,64.0723061 112.812327,69.9790408 Z M119.814224,49.6670204 C121.380245,48.1409388 122.158,47.3736939 123.728224,45.8434082 C123.717714,43.1527959 123.717714,41.7990816 123.71351,39.1105714 C121.996143,37.6643673 121.130102,36.9454694 119.412735,35.5097755 C116.755755,35.4992653 115.427265,35.4929592 112.770286,35.4866531 C112.77449,41.1243265 112.778694,43.9410612 112.789204,49.5787347 C115.599633,49.6039592 117.003796,49.6249796 119.814224,49.6670204 Z M102.054082,29.7859184 C110.11751,29.7859184 114.151327,29.7901224 122.214755,29.7901224 C125.527571,32.5753265 127.179776,33.9794898 130.496796,36.8172449 C130.509408,41.3702653 130.517816,43.6446735 130.532531,48.1955918 C128.911857,49.8036531 128.102571,50.6003265 126.475592,52.1978776 C128.701653,54.0813061 129.809429,55.0272245 132.031286,56.9463878 C132.050204,61.9282245 132.058612,64.4191429 132.069122,69.4030816 C128.762612,72.0285306 127.099898,73.3423061 123.782878,75.9677551 C116.667469,75.6671633 113.110816,75.5767755 105.991204,75.5116122 C105.982796,60.2297755 105.987,52.5888571 105.97649,37.3070204 C107.103184,36.7457755 107.65602,36.4662041 108.77851,35.9070612 C108.77851,35.7346939 108.77851,35.6485102 108.77851,35.4782449 C106.087898,35.4740408 104.744694,35.4740408 102.054082,35.4740408 C102.054082,33.2017347 102.054082,32.0582245 102.054082,29.7859184 L102.054082,29.7859184 Z" id="Fill-37"></path>
                <path d="M160.539163,51.5441429 C160.553878,53.9278571 160.553878,55.1197143 160.562286,57.5034286 C155.565735,57.1902245 153.072714,57.0493878 148.076163,56.7992449 C148.097184,62.7753469 148.109796,65.764449 148.132918,71.738449 C152.097367,72.0453469 154.071184,72.2156122 158.031429,72.5834694 C158.02302,70.5802245 158.02302,69.575449 158.018816,67.568 C160.707327,67.7929184 162.048429,67.9106327 164.732735,68.1565714 C164.743245,72.6023878 164.753755,74.8242449 164.770571,79.2700612 C155.445918,78.1580816 150.773082,77.7040408 141.419,77.0019592 C141.362245,61.1462653 141.341224,53.2215714 141.288673,37.3658776 C142.411163,36.7983265 142.966102,36.512449 144.084388,35.9406939 C144.084388,35.7620204 144.084388,35.6779388 144.084388,35.4992653 C141.39798,35.4740408 140.054776,35.4635306 137.368367,35.4404082 C137.364163,33.1575918 137.364163,32.0119796 137.357857,29.7291633 C147.987878,29.7291633 153.301837,29.7291633 163.931857,29.7291633 C163.948673,34.402 163.952878,36.7436735 163.971796,41.4207143 C161.283286,41.3450408 159.935878,41.3093061 157.249469,41.2420408 C157.245265,39.0033673 157.241061,37.8892857 157.230551,35.6506122 C153.537265,35.6043673 151.689571,35.5770408 147.998388,35.537102 C148.017306,41.7192041 148.03202,44.8113061 148.053041,50.9913061 C153.045388,51.1867959 155.548918,51.2982041 160.539163,51.5441429" id="Fill-38"></path>
                <path d="M180.25,57.7115306 C182.936408,57.9280408 184.281714,58.041551 186.961816,58.2748776 C188.782184,56.5512041 189.696571,55.672551 191.519041,53.9026327 C191.510633,48.5928776 191.506429,45.9464082 191.49802,40.6366531 C189.696571,38.8373061 188.792694,37.9460408 186.984939,36.1971429 C184.271204,36.1424898 182.913286,36.1172653 180.195347,36.0668163 C180.216367,44.7251224 180.231082,49.0553265 180.25,57.7115306 Z M180.317265,81.3510816 C177.637163,80.9537959 176.300265,80.7625102 173.622265,80.3967551 C173.569714,63.4311837 173.538184,54.949449 173.487735,37.9817755 C174.60602,37.3847959 175.167265,37.0842041 176.287653,36.4767143 C176.287653,36.2854286 176.283449,36.1908367 176.283449,35.997449 C173.538184,35.949102 172.167653,35.9301837 169.416082,35.8860408 C169.411878,33.422449 169.407673,32.1906531 169.399265,29.7291633 C177.525755,29.7291633 181.584796,29.7291633 189.70498,29.7291633 C193.110286,33.0167551 194.815041,34.7067959 198.205633,38.1835714 C198.209837,45.7362041 198.209837,49.5114694 198.214041,57.062 C195.832429,59.380551 194.644776,60.5156531 192.261061,62.7501224 C196.185571,71.3705918 198.144673,75.8164082 202.039755,85.0359592 C199.111612,84.4768163 197.64649,84.2077551 194.714143,83.6906531 C191.275204,75.8227143 189.543122,72.0054082 186.087367,64.5725918 C183.756204,64.3266531 182.595878,64.2110408 180.268918,63.9777143 C180.287837,70.9249592 180.296245,74.4038367 180.317265,81.3510816 L180.317265,81.3510816 Z" id="Fill-39"></path>
                <path d="M64.9866939,98.3460816 L66.1449184,96.305 C66.3425102,95.9833878 66.8091633,96.0338367 66.9794286,96.1599592 C67.0803265,96.2062041 68.8502449,97.5115714 70.4730204,97.5115714 C71.4567755,97.5115714 72.1714694,96.8956735 72.1714694,96.0338367 C72.1714694,95.0038367 71.3096327,94.2155714 69.6364082,93.5492245 C67.5196531,92.7126122 64.8647755,91.0646122 64.8647755,88.1133469 C64.8647755,85.6770816 66.7608163,83.2176939 70.5465918,83.2176939 C73.1068776,83.2176939 75.0743878,84.5230612 75.8122041,85.0632857 C76.1085918,85.2356531 76.0581429,85.6770816 75.9572449,85.849449 L74.7023265,87.7433878 C74.5320612,88.014551 74.0885306,88.2373673 73.8678163,88.065 C73.645,87.9409796 71.8519592,86.5872653 70.349,86.5872653 C69.4619388,86.5872653 68.801898,87.1800408 68.801898,87.8421837 C68.801898,88.7523673 69.5355102,89.4418367 71.479898,90.228 C73.3990612,90.9910408 76.4512245,92.491898 76.4512245,95.8383469 C76.4512245,98.3734082 74.263,100.931592 70.6474898,100.931592 C67.4460816,100.931592 65.6782653,99.601 65.1086122,99.0376531 C64.8647755,98.7896122 64.7912041,98.6908163 64.9866939,98.3460816" id="Fill-41"></path>
                <path d="M81.9186327,83.9302857 C81.9186327,83.686449 82.141449,83.4657347 82.3915918,83.4657347 L85.3176327,83.4657347 C85.5845918,83.4657347 85.7821837,83.686449 85.7821837,83.9302857 L85.7821837,90.1292041 L92.8198163,90.1292041 L92.8198163,83.9302857 C92.8198163,83.686449 93.0153061,83.4657347 93.2864694,83.4657347 L96.2146122,83.4657347 C96.458449,83.4657347 96.6833673,83.686449 96.6833673,83.9302857 L96.6833673,100.216898 C96.6833673,100.464939 96.458449,100.685653 96.2146122,100.685653 L93.2864694,100.685653 C93.0153061,100.685653 92.8198163,100.464939 92.8198163,100.216898 L92.8198163,93.7468163 L85.7821837,93.7468163 L85.7821837,100.216898 C85.7821837,100.464939 85.5845918,100.685653 85.3176327,100.685653 L82.3915918,100.685653 C82.141449,100.685653 81.9186327,100.464939 81.9186327,100.216898 L81.9186327,83.9302857" id="Fill-42"></path>
                <path d="M110.964633,96.9944694 C113.672061,96.9944694 115.881306,94.7810204 115.881306,92.0988163 C115.881306,89.3934898 113.672061,87.1548163 110.964633,87.1548163 C108.280327,87.1548163 106.06898,89.3934898 106.06898,92.0988163 C106.06898,94.7810204 108.280327,96.9944694 110.964633,96.9944694 Z M110.964633,83.2176939 C115.881306,83.2176939 119.818429,87.1800408 119.818429,92.0988163 C119.818429,97.0175918 115.881306,100.931592 110.964633,100.931592 C106.043755,100.931592 102.131857,97.0175918 102.131857,92.0988163 C102.131857,87.1800408 106.043755,83.2176939 110.964633,83.2176939 L110.964633,83.2176939 Z" id="Fill-43"></path>
                <path d="M131.446918,90.843898 C132.504245,90.843898 133.389204,90.0072857 133.389204,88.8995102 C133.389204,87.8674082 132.504245,87.0791429 131.446918,87.0791429 L129.107347,87.0791429 L129.107347,90.843898 L131.446918,90.843898 Z M125.26902,83.9302857 C125.26902,83.686449 125.466612,83.4657347 125.737776,83.4657347 L131.663429,83.4657347 C134.694571,83.4657347 137.17498,85.9230204 137.17498,88.8995102 C137.17498,91.9516735 134.694571,94.4341837 131.690755,94.4341837 L129.107347,94.4341837 L129.107347,100.216898 C129.107347,100.464939 128.884531,100.685653 128.640694,100.685653 L125.737776,100.685653 C125.466612,100.685653 125.26902,100.464939 125.26902,100.216898 L125.26902,83.9302857 L125.26902,83.9302857 Z" id="Fill-44"></path>
                <path d="M57.0136531,88.0944286 C57.0136531,89.3556531 55.9962653,90.3730408 54.7371429,90.3730408 C53.4801224,90.3730408 52.4606327,89.3556531 52.4606327,88.0944286 C52.4606327,86.8395102 53.4801224,85.8200204 54.7371429,85.8200204 C55.9962653,85.8200204 57.0136531,86.8395102 57.0136531,88.0944286 Z M44.8638571,91.2832245 C44.8638571,91.5228571 44.6725714,91.7141429 44.4371429,91.7141429 C44.1954082,91.7141429 44.0041224,91.5228571 44.0041224,91.2832245 C44.0041224,91.0456939 44.1954082,90.8523061 44.4371429,90.8523061 C44.6725714,90.8523061 44.8638571,91.0456939 44.8638571,91.2832245 Z M54.7371429,92.1934082 C55.9962653,92.1934082 57.0136531,93.212898 57.0136531,94.4699184 C57.0136531,95.7290408 55.9962653,96.7464286 54.7371429,96.7464286 C53.4801224,96.7464286 52.4606327,95.7290408 52.4606327,94.4699184 C52.4606327,93.212898 53.4801224,92.1934082 54.7371429,92.1934082 Z M54.4638776,85.2671837 C53.5536939,85.3197347 51.7690612,86.2971837 51.7690612,87.9977347 C51.7690612,89.7003878 48.4436327,89.7781633 47.8109184,89.7781633 C47.176102,89.7781633 27.4211224,90.7282857 26.315449,90.7282857 C25.2055714,90.7282857 24.8902653,91.2832245 24.8902653,91.2832245 C24.8902653,91.2832245 25.2055714,91.8360612 26.315449,91.8360612 C27.4211224,91.8360612 47.176102,92.7861837 47.8109184,92.7861837 C48.4436327,92.7861837 51.7690612,92.8681633 51.7690612,94.5708163 C51.7690612,96.2713673 53.5536939,97.2467143 54.4638776,97.2992653 C56.2148776,97.4022653 57.7052245,96.3302245 57.7052245,94.4110612 C57.7052245,93.5366122 57.2469796,92.9480408 56.8433878,92.4393469 C56.2863469,91.7330612 55.725102,91.3673061 55.6073878,91.3673061 C55.411898,91.3673061 55.1617551,91.3673061 55.0125102,91.3673061 C54.1422653,91.3673061 52.3197959,92.2144286 52.3197959,92.2144286 C52.3197959,92.2144286 50.0264694,92.1135306 48.5445306,92.1135306 C47.0583878,92.1135306 46.5433878,91.2832245 46.5433878,91.2832245 C46.5433878,91.2832245 47.0583878,90.4508163 48.5445306,90.4508163 C50.0264694,90.4508163 52.3197959,90.3520204 52.3197959,90.3520204 C52.3197959,90.3520204 54.1422653,91.2012449 55.0125102,91.2012449 C55.1617551,91.2012449 55.411898,91.2012449 55.6073878,91.2012449 C55.725102,91.2012449 56.2863469,90.8333878 56.8433878,90.125 C57.2469796,89.6184082 57.7052245,89.0298367 57.7052245,88.1574898 C57.7052245,86.2383265 56.2148776,85.1641837 54.4638776,85.2671837 L54.4638776,85.2671837 Z" id="Fill-45"></path>
                <path d="M147.302612,85.8200204 C148.559633,85.8200204 149.579122,86.8395102 149.579122,88.0944286 C149.579122,89.3556531 148.559633,90.3730408 147.302612,90.3730408 C146.047694,90.3730408 145.030306,89.3556531 145.030306,88.0944286 C145.030306,86.8395102 146.047694,85.8200204 147.302612,85.8200204 Z M157.608918,90.8523061 C157.844347,90.8523061 158.035633,91.0456939 158.035633,91.2832245 C158.035633,91.5228571 157.844347,91.7141429 157.608918,91.7141429 C157.367184,91.7141429 157.175898,91.5228571 157.175898,91.2832245 C157.175898,91.0456939 157.367184,90.8523061 157.608918,90.8523061 Z M149.579122,94.4699184 C149.579122,95.7290408 148.559633,96.7464286 147.302612,96.7464286 C146.047694,96.7464286 145.030306,95.7290408 145.030306,94.4699184 C145.030306,93.212898 146.047694,92.1934082 147.302612,92.1934082 C148.559633,92.1934082 149.579122,93.212898 149.579122,94.4699184 Z M144.334531,88.1574898 C144.334531,89.0298367 144.79698,89.6184082 145.196367,90.125 C145.753408,90.8333878 146.318857,91.2012449 146.432367,91.2012449 C146.627857,91.2012449 146.878,91.2012449 147.027245,91.2012449 C147.89749,91.2012449 149.719959,90.3520204 149.719959,90.3520204 C149.719959,90.3520204 152.013286,90.4508163 153.499429,90.4508163 C154.985571,90.4508163 155.496367,91.2832245 155.496367,91.2832245 C155.496367,91.2832245 154.985571,92.1135306 153.499429,92.1135306 C152.013286,92.1135306 149.719959,92.2144286 149.719959,92.2144286 C149.719959,92.2144286 147.89749,91.3673061 147.027245,91.3673061 C146.878,91.3673061 146.627857,91.3673061 146.432367,91.3673061 C146.318857,91.3673061 145.753408,91.7330612 145.196367,92.4393469 C144.79698,92.9480408 144.334531,93.5366122 144.334531,94.4110612 C144.334531,96.3302245 145.824878,97.4022653 147.580082,97.2992653 C148.490265,97.2467143 150.274898,96.2713673 150.274898,94.5708163 C150.274898,92.8681633 153.596122,92.7861837 154.233041,92.7861837 C154.861551,92.7861837 174.618633,91.8360612 175.72851,91.8360612 C176.834184,91.8360612 177.153694,91.2832245 177.153694,91.2832245 C177.153694,91.2832245 176.834184,90.7282857 175.72851,90.7282857 C174.618633,90.7282857 154.861551,89.7781633 154.233041,89.7781633 C153.596122,89.7781633 150.274898,89.7003878 150.274898,87.9977347 C150.274898,86.2971837 148.490265,85.3197347 147.580082,85.2671837 C145.824878,85.1641837 144.334531,86.2383265 144.334531,88.1574898 L144.334531,88.1574898 Z" id="Fill-46"></path>
            </g>
        </g>
    </g>
</svg>